<svg width="250" height="320" viewBox="0 0 250 320" fill="none" xmlns="http://www.w3.org/2000/svg">
<rect width="250" height="320" fill="#F8F8F8"/>
<path d="M52.704 164.788V167.56C52 167.707 51.3107 167.817 50.636 167.89C49.9613 167.963 49.162 168 48.238 168C47.05 168 46.0453 167.897 45.224 167.692C44.4173 167.487 43.7647 167.127 43.266 166.614C42.782 166.086 42.43 165.345 42.21 164.392C41.99 163.439 41.88 162.214 41.88 160.718C41.88 159.281 41.99 158.1 42.21 157.176C42.43 156.252 42.782 155.541 43.266 155.042C43.7647 154.529 44.4173 154.177 45.224 153.986C46.0453 153.781 47.05 153.678 48.238 153.678C49.162 153.678 49.9613 153.715 50.636 153.788C51.3107 153.847 52 153.957 52.704 154.118V156.978L52.638 157.022C52.022 156.875 51.428 156.773 50.856 156.714C50.284 156.641 49.58 156.604 48.744 156.604C48.0693 156.604 47.512 156.655 47.072 156.758C46.6467 156.846 46.3093 157.029 46.06 157.308C45.8107 157.587 45.6347 157.997 45.532 158.54C45.444 159.083 45.4 159.809 45.4 160.718C45.4 161.671 45.444 162.441 45.532 163.028C45.6347 163.6 45.8107 164.033 46.06 164.326C46.3093 164.619 46.6467 164.817 47.072 164.92C47.512 165.023 48.0693 165.074 48.744 165.074C49.5653 165.074 50.262 165.052 50.834 165.008C51.4207 164.949 52.0073 164.847 52.594 164.7L52.704 164.788ZM58.0861 167.802H54.5661V153.018H58.0861V159.046H58.1521C58.3574 158.386 58.7314 157.88 59.2741 157.528C59.8314 157.161 60.5574 156.978 61.4521 156.978C62.3028 156.978 62.9994 157.117 63.5421 157.396C64.0994 157.675 64.5101 158.166 64.7741 158.87C65.0528 159.559 65.1921 160.535 65.1921 161.796V167.802H61.6721L61.6501 162.478C61.6501 161.657 61.5254 161.07 61.2761 160.718C61.0268 160.366 60.5574 160.19 59.8681 160.19C59.2521 160.19 58.8048 160.351 58.5261 160.674C58.2474 160.997 58.1008 161.539 58.0861 162.302V167.802ZM77.0236 167.45C76.613 167.597 76.041 167.729 75.3076 167.846C74.589 167.949 73.731 168 72.7336 168C71.4723 168 70.3943 167.839 69.4996 167.516C68.6196 167.179 67.9523 166.614 67.4976 165.822C67.043 165.015 66.8156 163.901 66.8156 162.478C66.8156 160.542 67.2556 159.141 68.1356 158.276C69.0303 157.411 70.409 156.978 72.2716 156.978C73.6063 156.978 74.655 157.169 75.4176 157.55C76.195 157.931 76.745 158.474 77.0676 159.178C77.405 159.867 77.5736 160.689 77.5736 161.642C77.5736 161.921 77.559 162.221 77.5296 162.544C77.515 162.867 77.4783 163.182 77.4196 163.49L77.3316 163.578H70.0936C70.1963 164.223 70.497 164.649 70.9956 164.854C71.509 165.059 72.3376 165.162 73.4816 165.162C74.2443 165.162 74.875 165.147 75.3736 165.118C75.887 165.074 76.4076 165.015 76.9356 164.942L77.0236 165.008V167.45ZM74.5156 161.268C74.5156 160.916 74.457 160.615 74.3396 160.366C74.237 160.102 74.0243 159.904 73.7016 159.772C73.379 159.625 72.9023 159.552 72.2716 159.552C71.3476 159.552 70.739 159.713 70.4456 160.036C70.167 160.344 70.0276 160.755 70.0276 161.268H74.5156ZM87.783 164.7V167.56C87.4163 167.707 86.8737 167.817 86.155 167.89C85.4363 167.963 84.6737 168 83.867 168C82.7083 168 81.7403 167.839 80.963 167.516C80.2003 167.193 79.6283 166.636 79.247 165.844C78.8803 165.052 78.6897 163.952 78.675 162.544C78.675 161.092 78.873 159.963 79.269 159.156C79.6797 158.349 80.2737 157.785 81.051 157.462C81.8283 157.139 82.7597 156.978 83.845 156.978C84.4903 156.978 85.1723 157.022 85.891 157.11C86.6097 157.198 87.1963 157.315 87.651 157.462L87.673 160.41L87.607 160.454C87.167 160.366 86.6977 160.3 86.199 160.256C85.7003 160.212 85.209 160.19 84.725 160.19C83.7423 160.19 83.0603 160.373 82.679 160.74C82.2977 161.107 82.107 161.723 82.107 162.588C82.107 163.248 82.1877 163.739 82.349 164.062C82.5103 164.385 82.7817 164.597 83.163 164.7C83.5443 164.803 84.065 164.854 84.725 164.854C85.2383 164.854 85.7297 164.832 86.199 164.788C86.6683 164.744 87.167 164.693 87.695 164.634L87.783 164.7ZM93.2775 167.802H89.7575V152.996H93.2775V161.62H93.3215L96.0935 157.088H99.9655V157.176L96.7095 162.236V162.324L100.494 167.802H96.4455L93.3435 162.852L93.2775 162.83V167.802ZM111.69 167.802H108.17V153.876H111.69V167.802ZM117.856 167.802H114.336V157.088H117.68L117.856 159.046H117.922C118.127 158.386 118.494 157.88 119.022 157.528C119.55 157.161 120.283 156.978 121.222 156.978C122.498 156.978 123.436 157.337 124.038 158.056C124.654 158.775 124.962 160.021 124.962 161.796V167.802H121.442L121.42 162.478C121.42 161.657 121.295 161.07 121.046 160.718C120.796 160.366 120.327 160.19 119.638 160.19C118.992 160.19 118.538 160.351 118.274 160.674C118.01 160.982 117.87 161.517 117.856 162.28V167.802ZM133.62 164.216C134.266 164.436 134.97 164.612 135.732 164.744C136.51 164.861 137.28 164.92 138.042 164.92C139.084 164.92 139.854 164.876 140.352 164.788C140.866 164.685 141.203 164.531 141.364 164.326C141.526 164.121 141.606 163.857 141.606 163.534C141.606 163.255 141.548 163.035 141.43 162.874C141.313 162.713 141.086 162.588 140.748 162.5C140.411 162.397 139.912 162.317 139.252 162.258L137.8 162.126C136.715 162.023 135.857 161.796 135.226 161.444C134.61 161.092 134.17 160.623 133.906 160.036C133.657 159.435 133.532 158.716 133.532 157.88C133.532 156.883 133.73 156.076 134.126 155.46C134.537 154.844 135.197 154.397 136.106 154.118C137.016 153.825 138.226 153.678 139.736 153.678C141.702 153.678 143.322 153.935 144.598 154.448L144.532 157.44L144.466 157.528C143.014 157.015 141.496 156.758 139.912 156.758C139.15 156.758 138.563 156.802 138.152 156.89C137.742 156.963 137.456 157.088 137.294 157.264C137.133 157.44 137.052 157.689 137.052 158.012C137.052 158.335 137.104 158.577 137.206 158.738C137.324 158.899 137.551 159.024 137.888 159.112C138.226 159.185 138.717 159.259 139.362 159.332L140.748 159.486C141.922 159.618 142.824 159.853 143.454 160.19C144.085 160.527 144.518 160.982 144.752 161.554C145.002 162.111 145.126 162.793 145.126 163.6C145.126 164.583 144.914 165.404 144.488 166.064C144.078 166.709 143.403 167.193 142.464 167.516C141.526 167.839 140.272 168 138.702 168C137.676 168 136.752 167.949 135.93 167.846C135.109 167.729 134.31 167.575 133.532 167.384V164.282L133.62 164.216ZM148.568 171.85L150.262 167.824L146.016 157.132V157.088H149.954C150.364 158.247 150.746 159.413 151.098 160.586C151.464 161.759 151.758 162.962 151.978 164.194H152.022C152.242 162.977 152.52 161.781 152.858 160.608C153.21 159.435 153.606 158.261 154.046 157.088H157.83V157.154L152.176 171.894H148.568V171.85ZM158.668 164.766C159.812 165.089 161.081 165.25 162.474 165.25C163.149 165.25 163.655 165.228 163.992 165.184C164.329 165.14 164.557 165.067 164.674 164.964C164.791 164.861 164.85 164.722 164.85 164.546C164.85 164.297 164.755 164.143 164.564 164.084C164.388 164.025 164.029 163.945 163.486 163.842L161.748 163.512C160.633 163.292 159.827 162.947 159.328 162.478C158.844 161.994 158.602 161.275 158.602 160.322C158.602 159.031 158.983 158.151 159.746 157.682C160.523 157.213 161.755 156.978 163.442 156.978C164.454 156.978 165.341 157.037 166.104 157.154C166.881 157.257 167.527 157.389 168.04 157.55L167.996 160.212L167.93 160.278C166.742 159.897 165.444 159.706 164.036 159.706C163.347 159.706 162.863 159.757 162.584 159.86C162.32 159.948 162.188 160.131 162.188 160.41C162.188 160.557 162.225 160.674 162.298 160.762C162.386 160.85 162.577 160.938 162.87 161.026C163.163 161.099 163.625 161.195 164.256 161.312L165.862 161.62C166.757 161.811 167.417 162.126 167.842 162.566C168.267 163.006 168.48 163.703 168.48 164.656C168.48 165.492 168.326 166.159 168.018 166.658C167.71 167.142 167.189 167.487 166.456 167.692C165.737 167.897 164.74 168 163.464 168C162.496 168 161.601 167.956 160.78 167.868C159.973 167.765 159.247 167.648 158.602 167.516V164.81L158.668 164.766ZM170.565 164.59V159.97H169.245V157.11H170.895L171.555 154.492H174.085V157.11H176.483V159.97H174.085V163.82C174.085 164.231 174.137 164.517 174.239 164.678C174.342 164.825 174.577 164.898 174.943 164.898C175.178 164.898 175.427 164.891 175.691 164.876C175.955 164.847 176.219 164.817 176.483 164.788L176.549 164.832V167.692C175.845 167.897 174.914 168 173.755 168C172.597 168 171.775 167.736 171.291 167.208C170.807 166.68 170.565 165.807 170.565 164.59ZM187.969 167.45C187.558 167.597 186.986 167.729 186.253 167.846C185.534 167.949 184.676 168 183.679 168C182.418 168 181.34 167.839 180.445 167.516C179.565 167.179 178.898 166.614 178.443 165.822C177.988 165.015 177.761 163.901 177.761 162.478C177.761 160.542 178.201 159.141 179.081 158.276C179.976 157.411 181.354 156.978 183.217 156.978C184.552 156.978 185.6 157.169 186.363 157.55C187.14 157.931 187.69 158.474 188.013 159.178C188.35 159.867 188.519 160.689 188.519 161.642C188.519 161.921 188.504 162.221 188.475 162.544C188.46 162.867 188.424 163.182 188.365 163.49L188.277 163.578H181.039C181.142 164.223 181.442 164.649 181.941 164.854C182.454 165.059 183.283 165.162 184.427 165.162C185.19 165.162 185.82 165.147 186.319 165.118C186.832 165.074 187.353 165.015 187.881 164.942L187.969 165.008V167.45ZM185.461 161.268C185.461 160.916 185.402 160.615 185.285 160.366C185.182 160.102 184.97 159.904 184.647 159.772C184.324 159.625 183.848 159.552 183.217 159.552C182.293 159.552 181.684 159.713 181.391 160.036C181.112 160.344 180.973 160.755 180.973 161.268H185.461ZM203.7 156.978C204.786 156.978 205.644 157.337 206.274 158.056C206.92 158.775 207.242 160.021 207.242 161.796V167.802H203.722L203.7 162.236C203.7 161.517 203.59 160.997 203.37 160.674C203.165 160.351 202.754 160.19 202.138 160.19C201.522 160.19 201.104 160.351 200.884 160.674C200.679 160.997 200.576 161.517 200.576 162.236V167.802H197.056L197.034 162.236C197.034 161.517 196.924 160.997 196.704 160.674C196.499 160.351 196.088 160.19 195.472 160.19C194.856 160.19 194.438 160.351 194.218 160.674C194.013 160.997 193.91 161.517 193.91 162.236V167.802H190.39V157.088H193.734L193.91 159.046H193.976C194.167 158.401 194.497 157.895 194.966 157.528C195.45 157.161 196.132 156.978 197.012 156.978C197.892 156.978 198.582 157.161 199.08 157.528C199.594 157.895 199.924 158.401 200.07 159.046H200.136C200.327 158.386 200.694 157.88 201.236 157.528C201.794 157.161 202.615 156.978 203.7 156.978Z" fill="#040E08"/>
</svg>
