<svg width="250" height="320" viewBox="0 0 250 320" fill="none" xmlns="http://www.w3.org/2000/svg">
<rect width="250" height="320" fill="#F8F8F8"/>
<path d="M59.4517 141.786V145.98H64.0237V147.33H59.4517V151.65H64.5637V153H57.8137V140.436H64.5637V141.786H59.4517ZM71.8483 142.956C73.0483 142.956 74.0203 143.322 74.7643 144.054C75.5083 144.774 75.8803 145.818 75.8803 147.186V153H74.2603V147.42C74.2603 146.436 74.0143 145.686 73.5223 145.17C73.0303 144.642 72.3583 144.378 71.5063 144.378C70.6423 144.378 69.9523 144.648 69.4363 145.188C68.9323 145.728 68.6803 146.514 68.6803 147.546V153H67.0423V143.136H68.6803V144.54C69.0043 144.036 69.4423 143.646 69.9943 143.37C70.5583 143.094 71.1763 142.956 71.8483 142.956ZM80.5539 144.486V150.3C80.5539 150.78 80.6559 151.122 80.8599 151.326C81.0639 151.518 81.4179 151.614 81.9219 151.614H83.1279V153H81.6519C80.7399 153 80.0559 152.79 79.5999 152.37C79.1439 151.95 78.9159 151.26 78.9159 150.3V144.486H77.6379V143.136H78.9159V140.652H80.5539V143.136H83.1279V144.486H80.5539ZM86.7506 144.738C87.0386 144.174 87.4466 143.736 87.9746 143.424C88.5146 143.112 89.1686 142.956 89.9366 142.956V144.648H89.5046C87.6686 144.648 86.7506 145.644 86.7506 147.636V153H85.1126V143.136H86.7506V144.738ZM100.827 147.69C100.827 148.002 100.809 148.332 100.773 148.68H92.8894C92.9494 149.652 93.2794 150.414 93.8794 150.966C94.4914 151.506 95.2294 151.776 96.0934 151.776C96.8014 151.776 97.3894 151.614 97.8574 151.29C98.3374 150.954 98.6734 150.51 98.8654 149.958H100.629C100.365 150.906 99.8374 151.68 99.0454 152.28C98.2534 152.868 97.2694 153.162 96.0934 153.162C95.1574 153.162 94.3174 152.952 93.5734 152.532C92.8414 152.112 92.2654 151.518 91.8454 150.75C91.4254 149.97 91.2154 149.07 91.2154 148.05C91.2154 147.03 91.4194 146.136 91.8274 145.368C92.2354 144.6 92.8054 144.012 93.5374 143.604C94.2814 143.184 95.1334 142.974 96.0934 142.974C97.0294 142.974 97.8574 143.178 98.5774 143.586C99.2974 143.994 99.8494 144.558 100.233 145.278C100.629 145.986 100.827 146.79 100.827 147.69ZM99.1354 147.348C99.1354 146.724 98.9974 146.19 98.7214 145.746C98.4454 145.29 98.0674 144.948 97.5874 144.72C97.1194 144.48 96.5974 144.36 96.0214 144.36C95.1934 144.36 94.4854 144.624 93.8974 145.152C93.3214 145.68 92.9914 146.412 92.9074 147.348H99.1354ZM104.628 144.954C104.952 144.39 105.432 143.922 106.068 143.55C106.716 143.166 107.466 142.974 108.318 142.974C109.194 142.974 109.986 143.184 110.694 143.604C111.414 144.024 111.978 144.618 112.386 145.386C112.794 146.142 112.998 147.024 112.998 148.032C112.998 149.028 112.794 149.916 112.386 150.696C111.978 151.476 111.414 152.082 110.694 152.514C109.986 152.946 109.194 153.162 108.318 153.162C107.478 153.162 106.734 152.976 106.086 152.604C105.45 152.22 104.964 151.746 104.628 151.182V157.68H102.99V143.136H104.628V144.954ZM111.324 148.032C111.324 147.288 111.174 146.64 110.874 146.088C110.574 145.536 110.166 145.116 109.65 144.828C109.146 144.54 108.588 144.396 107.976 144.396C107.376 144.396 106.818 144.546 106.302 144.846C105.798 145.134 105.39 145.56 105.078 146.124C104.778 146.676 104.628 147.318 104.628 148.05C104.628 148.794 104.778 149.448 105.078 150.012C105.39 150.564 105.798 150.99 106.302 151.29C106.818 151.578 107.376 151.722 107.976 151.722C108.588 151.722 109.146 151.578 109.65 151.29C110.166 150.99 110.574 150.564 110.874 150.012C111.174 149.448 111.324 148.788 111.324 148.032ZM116.792 144.738C117.08 144.174 117.488 143.736 118.016 143.424C118.556 143.112 119.21 142.956 119.978 142.956V144.648H119.546C117.71 144.648 116.792 145.644 116.792 147.636V153H115.154V143.136H116.792V144.738ZM130.868 147.69C130.868 148.002 130.85 148.332 130.814 148.68H122.93C122.99 149.652 123.32 150.414 123.92 150.966C124.532 151.506 125.27 151.776 126.134 151.776C126.842 151.776 127.43 151.614 127.898 151.29C128.378 150.954 128.714 150.51 128.906 149.958H130.67C130.406 150.906 129.878 151.68 129.086 152.28C128.294 152.868 127.31 153.162 126.134 153.162C125.198 153.162 124.358 152.952 123.614 152.532C122.882 152.112 122.306 151.518 121.886 150.75C121.466 149.97 121.256 149.07 121.256 148.05C121.256 147.03 121.46 146.136 121.868 145.368C122.276 144.6 122.846 144.012 123.578 143.604C124.322 143.184 125.174 142.974 126.134 142.974C127.07 142.974 127.898 143.178 128.618 143.586C129.338 143.994 129.89 144.558 130.274 145.278C130.67 145.986 130.868 146.79 130.868 147.69ZM129.176 147.348C129.176 146.724 129.038 146.19 128.762 145.746C128.486 145.29 128.108 144.948 127.628 144.72C127.16 144.48 126.638 144.36 126.062 144.36C125.234 144.36 124.526 144.624 123.938 145.152C123.362 145.68 123.032 146.412 122.948 147.348H129.176ZM137.837 142.956C139.037 142.956 140.009 143.322 140.753 144.054C141.497 144.774 141.869 145.818 141.869 147.186V153H140.249V147.42C140.249 146.436 140.003 145.686 139.511 145.17C139.019 144.642 138.347 144.378 137.495 144.378C136.631 144.378 135.941 144.648 135.425 145.188C134.921 145.728 134.669 146.514 134.669 147.546V153H133.031V143.136H134.669V144.54C134.993 144.036 135.431 143.646 135.983 143.37C136.547 143.094 137.165 142.956 137.837 142.956ZM153.544 147.69C153.544 148.002 153.526 148.332 153.49 148.68H145.606C145.666 149.652 145.996 150.414 146.596 150.966C147.208 151.506 147.946 151.776 148.81 151.776C149.518 151.776 150.106 151.614 150.574 151.29C151.054 150.954 151.39 150.51 151.582 149.958H153.346C153.082 150.906 152.554 151.68 151.762 152.28C150.97 152.868 149.986 153.162 148.81 153.162C147.874 153.162 147.034 152.952 146.29 152.532C145.558 152.112 144.982 151.518 144.562 150.75C144.142 149.97 143.932 149.07 143.932 148.05C143.932 147.03 144.136 146.136 144.544 145.368C144.952 144.6 145.522 144.012 146.254 143.604C146.998 143.184 147.85 142.974 148.81 142.974C149.746 142.974 150.574 143.178 151.294 143.586C152.014 143.994 152.566 144.558 152.95 145.278C153.346 145.986 153.544 146.79 153.544 147.69ZM151.852 147.348C151.852 146.724 151.714 146.19 151.438 145.746C151.162 145.29 150.784 144.948 150.304 144.72C149.836 144.48 149.314 144.36 148.738 144.36C147.91 144.36 147.202 144.624 146.614 145.152C146.038 145.68 145.708 146.412 145.624 147.348H151.852ZM164.454 143.136V153H162.816V151.542C162.504 152.046 162.066 152.442 161.502 152.73C160.95 153.006 160.338 153.144 159.666 153.144C158.898 153.144 158.208 152.988 157.596 152.676C156.984 152.352 156.498 151.872 156.138 151.236C155.79 150.6 155.616 149.826 155.616 148.914V143.136H157.236V148.698C157.236 149.67 157.482 150.42 157.974 150.948C158.466 151.464 159.138 151.722 159.99 151.722C160.866 151.722 161.556 151.452 162.06 150.912C162.564 150.372 162.816 149.586 162.816 148.554V143.136H164.454ZM168.858 144.738C169.146 144.174 169.554 143.736 170.082 143.424C170.622 143.112 171.276 142.956 172.044 142.956V144.648H171.612C169.776 144.648 168.858 145.644 168.858 147.636V153H167.22V143.136H168.858V144.738ZM174.781 141.534C174.469 141.534 174.205 141.426 173.989 141.21C173.773 140.994 173.665 140.73 173.665 140.418C173.665 140.106 173.773 139.842 173.989 139.626C174.205 139.41 174.469 139.302 174.781 139.302C175.081 139.302 175.333 139.41 175.537 139.626C175.753 139.842 175.861 140.106 175.861 140.418C175.861 140.73 175.753 140.994 175.537 141.21C175.333 141.426 175.081 141.534 174.781 141.534ZM175.573 143.136V153H173.935V143.136H175.573ZM177.753 148.032C177.753 147.024 177.957 146.142 178.365 145.386C178.773 144.618 179.331 144.024 180.039 143.604C180.759 143.184 181.557 142.974 182.433 142.974C183.297 142.974 184.047 143.16 184.683 143.532C185.319 143.904 185.793 144.372 186.105 144.936V143.136H187.761V153H186.105V151.164C185.781 151.74 185.295 152.22 184.647 152.604C184.011 152.976 183.267 153.162 182.415 153.162C181.539 153.162 180.747 152.946 180.039 152.514C179.331 152.082 178.773 151.476 178.365 150.696C177.957 149.916 177.753 149.028 177.753 148.032ZM186.105 148.05C186.105 147.306 185.955 146.658 185.655 146.106C185.355 145.554 184.947 145.134 184.431 144.846C183.927 144.546 183.369 144.396 182.757 144.396C182.145 144.396 181.587 144.54 181.083 144.828C180.579 145.116 180.177 145.536 179.877 146.088C179.577 146.64 179.427 147.288 179.427 148.032C179.427 148.788 179.577 149.448 179.877 150.012C180.177 150.564 180.579 150.99 181.083 151.29C181.587 151.578 182.145 151.722 182.757 151.722C183.369 151.722 183.927 151.578 184.431 151.29C184.947 150.99 185.355 150.564 185.655 150.012C185.955 149.448 186.105 148.794 186.105 148.05ZM192.167 139.68V153H190.529V139.68H192.167ZM100.989 171.09C100.641 170.358 100.137 169.794 99.4766 169.398C98.8166 168.99 98.0486 168.786 97.1726 168.786C96.2966 168.786 95.5046 168.99 94.7966 169.398C94.1006 169.794 93.5486 170.37 93.1406 171.126C92.7446 171.87 92.5466 172.734 92.5466 173.718C92.5466 174.702 92.7446 175.566 93.1406 176.31C93.5486 177.054 94.1006 177.63 94.7966 178.038C95.5046 178.434 96.2966 178.632 97.1726 178.632C98.3966 178.632 99.4046 178.266 100.197 177.534C100.989 176.802 101.451 175.812 101.583 174.564H96.5786V173.232H103.329V174.492C103.233 175.524 102.909 176.472 102.357 177.336C101.805 178.188 101.079 178.866 100.179 179.37C99.2786 179.862 98.2766 180.108 97.1726 180.108C96.0086 180.108 94.9466 179.838 93.9866 179.298C93.0266 178.746 92.2646 177.984 91.7006 177.012C91.1486 176.04 90.8726 174.942 90.8726 173.718C90.8726 172.494 91.1486 171.396 91.7006 170.424C92.2646 169.44 93.0266 168.678 93.9866 168.138C94.9466 167.586 96.0086 167.31 97.1726 167.31C98.5046 167.31 99.6806 167.64 100.701 168.3C101.733 168.96 102.483 169.89 102.951 171.09H100.989ZM104.882 175.032C104.882 174.024 105.086 173.142 105.494 172.386C105.902 171.618 106.46 171.024 107.168 170.604C107.888 170.184 108.686 169.974 109.562 169.974C110.426 169.974 111.176 170.16 111.812 170.532C112.448 170.904 112.922 171.372 113.234 171.936V170.136H114.89V180H113.234V178.164C112.91 178.74 112.424 179.22 111.776 179.604C111.14 179.976 110.396 180.162 109.544 180.162C108.668 180.162 107.876 179.946 107.168 179.514C106.46 179.082 105.902 178.476 105.494 177.696C105.086 176.916 104.882 176.028 104.882 175.032ZM113.234 175.05C113.234 174.306 113.084 173.658 112.784 173.106C112.484 172.554 112.076 172.134 111.56 171.846C111.056 171.546 110.498 171.396 109.886 171.396C109.274 171.396 108.716 171.54 108.212 171.828C107.708 172.116 107.306 172.536 107.006 173.088C106.706 173.64 106.556 174.288 106.556 175.032C106.556 175.788 106.706 176.448 107.006 177.012C107.306 177.564 107.708 177.99 108.212 178.29C108.716 178.578 109.274 178.722 109.886 178.722C110.498 178.722 111.056 178.578 111.56 178.29C112.076 177.99 112.484 177.564 112.784 177.012C113.084 176.448 113.234 175.794 113.234 175.05ZM118.882 178.65H123.724V180H117.01V178.65L121.798 171.468H117.046V170.136H123.688V171.468L118.882 178.65ZM134.85 174.69C134.85 175.002 134.832 175.332 134.796 175.68H126.912C126.972 176.652 127.302 177.414 127.902 177.966C128.514 178.506 129.252 178.776 130.116 178.776C130.824 178.776 131.412 178.614 131.88 178.29C132.36 177.954 132.696 177.51 132.888 176.958H134.652C134.388 177.906 133.86 178.68 133.068 179.28C132.276 179.868 131.292 180.162 130.116 180.162C129.18 180.162 128.34 179.952 127.596 179.532C126.864 179.112 126.288 178.518 125.868 177.75C125.448 176.97 125.238 176.07 125.238 175.05C125.238 174.03 125.442 173.136 125.85 172.368C126.258 171.6 126.828 171.012 127.56 170.604C128.304 170.184 129.156 169.974 130.116 169.974C131.052 169.974 131.88 170.178 132.6 170.586C133.32 170.994 133.872 171.558 134.256 172.278C134.652 172.986 134.85 173.79 134.85 174.69ZM133.158 174.348C133.158 173.724 133.02 173.19 132.744 172.746C132.468 172.29 132.09 171.948 131.61 171.72C131.142 171.48 130.62 171.36 130.044 171.36C129.216 171.36 128.508 171.624 127.92 172.152C127.344 172.68 127.014 173.412 126.93 174.348H133.158ZM139.01 171.486V177.3C139.01 177.78 139.112 178.122 139.316 178.326C139.52 178.518 139.874 178.614 140.378 178.614H141.584V180H140.108C139.196 180 138.512 179.79 138.056 179.37C137.6 178.95 137.372 178.26 137.372 177.3V171.486H136.094V170.136H137.372V167.652H139.01V170.136H141.584V171.486H139.01ZM145.567 171.486V177.3C145.567 177.78 145.669 178.122 145.873 178.326C146.077 178.518 146.431 178.614 146.935 178.614H148.141V180H146.665C145.753 180 145.069 179.79 144.613 179.37C144.157 178.95 143.929 178.26 143.929 177.3V171.486H142.651V170.136H143.929V167.652H145.567V170.136H148.141V171.486H145.567ZM159.125 174.69C159.125 175.002 159.107 175.332 159.071 175.68H151.187C151.247 176.652 151.577 177.414 152.177 177.966C152.789 178.506 153.527 178.776 154.391 178.776C155.099 178.776 155.687 178.614 156.155 178.29C156.635 177.954 156.971 177.51 157.163 176.958H158.927C158.663 177.906 158.135 178.68 157.343 179.28C156.551 179.868 155.567 180.162 154.391 180.162C153.455 180.162 152.615 179.952 151.871 179.532C151.139 179.112 150.563 178.518 150.143 177.75C149.723 176.97 149.513 176.07 149.513 175.05C149.513 174.03 149.717 173.136 150.125 172.368C150.533 171.6 151.103 171.012 151.835 170.604C152.579 170.184 153.431 169.974 154.391 169.974C155.327 169.974 156.155 170.178 156.875 170.586C157.595 170.994 158.147 171.558 158.531 172.278C158.927 172.986 159.125 173.79 159.125 174.69ZM157.433 174.348C157.433 173.724 157.295 173.19 157.019 172.746C156.743 172.29 156.365 171.948 155.885 171.72C155.417 171.48 154.895 171.36 154.319 171.36C153.491 171.36 152.783 171.624 152.195 172.152C151.619 172.68 151.289 173.412 151.205 174.348H157.433Z" fill="#4E2E87"/>
</svg>
