<svg width="250" height="320" viewBox="0 0 250 320" fill="none" xmlns="http://www.w3.org/2000/svg">
<rect width="250" height="320" fill="#F9F5EA"/>
<path d="M59.0156 167H54.751V151.531H62.3564C63.0726 151.531 63.7637 151.617 64.4297 151.789C65.0957 151.954 65.6829 152.219 66.1914 152.584C66.707 152.942 67.1152 153.408 67.416 153.98C67.724 154.553 67.8779 155.248 67.8779 156.064C67.8779 156.702 67.7419 157.303 67.4697 157.869C67.2048 158.428 66.8467 158.929 66.3955 159.373C65.9515 159.81 65.4395 160.175 64.8594 160.469C64.2793 160.755 63.6777 160.945 63.0547 161.038C63.334 161.511 63.624 161.958 63.9248 162.381C64.2327 162.803 64.5407 163.201 64.8486 163.573C65.1637 163.938 65.4753 164.279 65.7832 164.594C66.0911 164.902 66.3848 165.185 66.6641 165.442C67.3229 166.044 67.9746 166.563 68.6191 167H63.3018C62.8721 166.592 62.4639 166.101 62.0771 165.528C61.7477 165.041 61.4147 164.44 61.0781 163.724C60.7487 163 60.4945 162.166 60.3154 161.221H59.0156V167ZM63.5488 156.064C63.5488 155.026 63.2946 154.263 62.7861 153.776C62.2848 153.289 61.5293 153.046 60.5195 153.046H59.0156V159.76H60.5195C61.0566 159.76 61.515 159.66 61.8945 159.459C62.2812 159.251 62.5964 158.979 62.8398 158.643C63.0833 158.299 63.2624 157.905 63.377 157.461C63.4915 157.017 63.5488 156.551 63.5488 156.064ZM69.4355 161.693C69.4355 161.128 69.4821 160.54 69.5752 159.932C69.6755 159.323 69.8151 158.714 69.9941 158.105C70.1803 157.497 70.4023 156.895 70.6602 156.301C70.918 155.706 71.208 155.137 71.5303 154.593H74.1836C74.0046 155.13 73.8434 155.692 73.7002 156.279C73.5641 156.859 73.446 157.443 73.3457 158.03C73.2526 158.61 73.1774 159.18 73.1201 159.738C73.07 160.297 73.0449 160.816 73.0449 161.296C73.0449 161.575 73.0557 161.876 73.0771 162.198C73.1058 162.513 73.1523 162.832 73.2168 163.154C73.2812 163.469 73.3708 163.774 73.4854 164.067C73.6071 164.361 73.7611 164.622 73.9473 164.852C74.1335 165.074 74.359 165.253 74.624 165.389C74.8962 165.518 75.2148 165.582 75.5801 165.582C75.9382 165.582 76.2568 165.503 76.5361 165.346C76.8226 165.181 77.0732 164.97 77.2881 164.712C77.5029 164.447 77.6855 164.146 77.8359 163.81C77.9863 163.473 78.1081 163.129 78.2012 162.778C78.3014 162.42 78.373 162.073 78.416 161.736C78.4661 161.393 78.4912 161.085 78.4912 160.812V154.593H82.1221V167H80.7256L79.0605 164.11C78.8529 164.59 78.5986 165.027 78.2979 165.421C78.0042 165.808 77.6676 166.141 77.2881 166.42C76.9085 166.699 76.486 166.914 76.0205 167.064C75.5622 167.215 75.0645 167.29 74.5273 167.29C73.668 167.29 72.9196 167.15 72.2822 166.871C71.6449 166.592 71.1149 166.205 70.6924 165.711C70.2699 165.217 69.9548 164.63 69.7471 163.949C69.5394 163.262 69.4355 162.51 69.4355 161.693ZM96.6025 157.665L95.0342 158.288C94.7835 157.5 94.3646 156.895 93.7773 156.473C93.1901 156.05 92.4847 155.839 91.6611 155.839C91.2171 155.839 90.8197 155.91 90.4688 156.054C90.125 156.19 89.8206 156.38 89.5557 156.623C89.2979 156.867 89.0758 157.149 88.8896 157.472C88.7106 157.794 88.5638 158.138 88.4492 158.503C88.3346 158.868 88.2523 159.248 88.2021 159.642C88.152 160.028 88.127 160.404 88.127 160.77C88.127 161.163 88.1484 161.561 88.1914 161.962C88.2344 162.363 88.306 162.75 88.4062 163.122C88.5137 163.487 88.6533 163.831 88.8252 164.153C88.9971 164.468 89.2119 164.744 89.4697 164.98C89.7347 165.217 90.0462 165.403 90.4043 165.539C90.7695 165.675 91.1885 165.743 91.6611 165.743C92.0407 165.743 92.4023 165.686 92.7461 165.571C93.0898 165.457 93.4049 165.296 93.6914 165.088C93.9779 164.88 94.2321 164.633 94.4541 164.347C94.6761 164.06 94.8516 163.742 94.9805 163.391L96.5596 163.971C96.3232 164.536 96.0081 165.027 95.6143 165.442C95.2275 165.851 94.7871 166.191 94.293 166.463C93.7988 166.728 93.2689 166.925 92.7031 167.054C92.1374 167.183 91.5645 167.247 90.9844 167.247C90.0462 167.247 89.1761 167.09 88.374 166.774C87.5719 166.452 86.8773 166.005 86.29 165.432C85.71 164.852 85.2552 164.168 84.9258 163.38C84.5964 162.585 84.4316 161.715 84.4316 160.77C84.4316 159.817 84.5928 158.943 84.915 158.148C85.2445 157.354 85.6992 156.67 86.2793 156.097C86.8594 155.524 87.5505 155.08 88.3525 154.765C89.1546 154.45 90.0319 154.292 90.9844 154.292C91.5859 154.292 92.1732 154.36 92.7461 154.496C93.319 154.625 93.849 154.829 94.3359 155.108C94.8301 155.381 95.2705 155.728 95.6572 156.15C96.0511 156.573 96.3662 157.078 96.6025 157.665ZM111.438 159.889C111.438 160.727 111.334 161.6 111.126 162.51C110.925 163.419 110.643 164.311 110.277 165.185C109.912 166.058 109.475 166.878 108.967 167.645C108.458 168.418 107.9 169.084 107.291 169.643L105.927 168.901C106.12 168.543 106.303 168.142 106.475 167.698C106.646 167.254 106.8 166.785 106.937 166.291C107.08 165.79 107.205 165.274 107.312 164.744C107.427 164.214 107.52 163.691 107.592 163.176C107.671 162.653 107.728 162.148 107.764 161.661C107.807 161.167 107.828 160.709 107.828 160.286C107.828 160.007 107.817 159.71 107.796 159.395C107.774 159.072 107.728 158.754 107.656 158.438C107.592 158.116 107.502 157.808 107.388 157.515C107.273 157.221 107.119 156.963 106.926 156.741C106.74 156.519 106.51 156.34 106.238 156.204C105.973 156.068 105.658 156 105.293 156C104.935 156 104.616 156.082 104.337 156.247C104.058 156.405 103.811 156.616 103.596 156.881C103.381 157.139 103.195 157.436 103.037 157.772C102.887 158.109 102.761 158.456 102.661 158.814C102.568 159.165 102.5 159.513 102.457 159.856C102.414 160.2 102.393 160.508 102.393 160.78V167H98.751V150.027H102.382V156.419C102.847 155.739 103.417 155.216 104.09 154.851C104.77 154.478 105.522 154.292 106.346 154.292C107.205 154.292 107.953 154.432 108.591 154.711C109.228 154.99 109.758 155.381 110.181 155.882C110.603 156.376 110.918 156.967 111.126 157.654C111.334 158.335 111.438 159.079 111.438 159.889ZM117.646 151.596C117.646 151.868 117.593 152.126 117.485 152.369C117.385 152.613 117.245 152.824 117.066 153.003C116.887 153.182 116.676 153.325 116.433 153.433C116.189 153.533 115.931 153.583 115.659 153.583C115.387 153.583 115.129 153.533 114.886 153.433C114.649 153.325 114.442 153.182 114.263 153.003C114.084 152.824 113.94 152.613 113.833 152.369C113.733 152.126 113.683 151.868 113.683 151.596C113.683 151.324 113.733 151.069 113.833 150.833C113.94 150.59 114.084 150.378 114.263 150.199C114.442 150.02 114.649 149.881 114.886 149.78C115.129 149.673 115.387 149.619 115.659 149.619C115.931 149.619 116.189 149.673 116.433 149.78C116.676 149.881 116.887 150.02 117.066 150.199C117.245 150.378 117.385 150.59 117.485 150.833C117.593 151.069 117.646 151.324 117.646 151.596ZM117.485 167H113.844V154.604H117.485V167ZM130.086 155.463L128.883 167H126.251L128.883 151.531H132.782L136.402 163.337L140.065 151.531H143.965L146.156 167H141.816L140.538 155.764L137.52 167H133.62L130.086 155.463ZM151.431 161.113C151.875 161.214 152.319 161.292 152.763 161.35C153.207 161.407 153.654 161.436 154.105 161.436C154.578 161.436 155.015 161.393 155.416 161.307C155.824 161.214 156.175 161.063 156.469 160.855C156.77 160.641 157.006 160.358 157.178 160.007C157.35 159.656 157.436 159.219 157.436 158.696C157.436 158.274 157.378 157.887 157.264 157.536C157.149 157.185 156.977 156.884 156.748 156.634C156.526 156.383 156.25 156.19 155.921 156.054C155.591 155.91 155.208 155.839 154.771 155.839C154.363 155.839 153.994 155.914 153.665 156.064C153.343 156.215 153.056 156.419 152.806 156.677C152.562 156.927 152.351 157.221 152.172 157.558C152 157.894 151.857 158.245 151.742 158.61C151.628 158.976 151.545 159.344 151.495 159.717C151.445 160.089 151.42 160.44 151.42 160.77C151.42 160.827 151.42 160.884 151.42 160.941C151.42 160.999 151.424 161.056 151.431 161.113ZM160.379 158.664C160.379 159.173 160.297 159.627 160.132 160.028C159.967 160.422 159.742 160.77 159.455 161.07C159.176 161.371 158.85 161.625 158.478 161.833C158.105 162.041 157.708 162.213 157.285 162.349C156.863 162.478 156.426 162.571 155.975 162.628C155.531 162.685 155.097 162.714 154.675 162.714C154.138 162.714 153.608 162.678 153.085 162.606C152.562 162.528 152.047 162.406 151.538 162.241C151.617 162.714 151.742 163.165 151.914 163.595C152.086 164.017 152.315 164.39 152.602 164.712C152.888 165.027 153.239 165.278 153.654 165.464C154.077 165.65 154.575 165.743 155.147 165.743C155.527 165.743 155.889 165.686 156.232 165.571C156.576 165.457 156.891 165.296 157.178 165.088C157.464 164.88 157.715 164.633 157.93 164.347C158.152 164.06 158.331 163.742 158.467 163.391L160.035 163.971C159.799 164.536 159.473 165.027 159.058 165.442C158.649 165.851 158.184 166.191 157.661 166.463C157.146 166.728 156.594 166.925 156.007 167.054C155.427 167.183 154.85 167.247 154.277 167.247C153.332 167.247 152.458 167.09 151.656 166.774C150.854 166.452 150.163 166.005 149.583 165.432C149.003 164.859 148.548 164.175 148.219 163.38C147.889 162.585 147.725 161.715 147.725 160.77C147.725 159.824 147.889 158.954 148.219 158.159C148.548 157.364 149.003 156.68 149.583 156.107C150.163 155.535 150.854 155.09 151.656 154.775C152.458 154.453 153.332 154.292 154.277 154.292C154.736 154.292 155.205 154.324 155.685 154.389C156.164 154.453 156.63 154.557 157.081 154.7C157.532 154.836 157.958 155.015 158.359 155.237C158.76 155.459 159.108 155.735 159.401 156.064C159.702 156.387 159.938 156.763 160.11 157.192C160.289 157.622 160.379 158.113 160.379 158.664ZM175.139 167H171.508V165.518C171.078 166.105 170.559 166.542 169.95 166.828C169.349 167.107 168.686 167.247 167.963 167.247C167.018 167.247 166.173 167.079 165.428 166.742C164.683 166.406 164.053 165.947 163.537 165.367C163.021 164.78 162.628 164.092 162.355 163.305C162.083 162.517 161.947 161.672 161.947 160.77C161.947 159.867 162.083 159.022 162.355 158.234C162.628 157.447 163.021 156.763 163.537 156.183C164.053 155.595 164.683 155.133 165.428 154.797C166.173 154.46 167.018 154.292 167.963 154.292C168.443 154.292 168.897 154.364 169.327 154.507C169.764 154.65 170.161 154.854 170.52 155.119C170.885 155.377 171.203 155.692 171.476 156.064C171.755 156.43 171.973 156.838 172.131 157.289L173.742 154.593H175.139V167ZM171.486 160.77C171.486 160.447 171.468 160.107 171.433 159.749C171.404 159.391 171.35 159.036 171.271 158.686C171.193 158.335 171.082 158.002 170.938 157.687C170.802 157.364 170.623 157.081 170.401 156.838C170.187 156.587 169.925 156.39 169.617 156.247C169.309 156.104 168.951 156.032 168.543 156.032C168.135 156.032 167.78 156.107 167.479 156.258C167.179 156.401 166.921 156.598 166.706 156.849C166.491 157.092 166.312 157.375 166.169 157.697C166.033 158.02 165.925 158.356 165.847 158.707C165.768 159.058 165.711 159.412 165.675 159.771C165.646 160.121 165.632 160.454 165.632 160.77C165.632 161.085 165.646 161.421 165.675 161.779C165.711 162.137 165.768 162.492 165.847 162.843C165.925 163.194 166.033 163.53 166.169 163.853C166.312 164.175 166.491 164.461 166.706 164.712C166.921 164.955 167.179 165.152 167.479 165.303C167.78 165.446 168.135 165.518 168.543 165.518C168.915 165.518 169.245 165.442 169.531 165.292C169.825 165.134 170.079 164.927 170.294 164.669C170.516 164.411 170.702 164.118 170.853 163.788C171.003 163.459 171.125 163.118 171.218 162.768C171.311 162.417 171.379 162.069 171.422 161.726C171.465 161.375 171.486 161.056 171.486 160.77ZM181.81 167H178.179V148.878H179.575L181.81 152.648V167ZM195.517 163.036C195.517 163.58 195.438 164.064 195.28 164.486C195.123 164.909 194.908 165.278 194.636 165.593C194.364 165.901 194.041 166.162 193.669 166.377C193.297 166.585 192.896 166.753 192.466 166.882C192.043 167.011 191.599 167.104 191.134 167.161C190.668 167.218 190.206 167.247 189.748 167.247C189.132 167.247 188.588 167.208 188.115 167.129C187.643 167.05 187.191 166.925 186.762 166.753C186.332 166.574 185.902 166.345 185.473 166.065C185.05 165.786 184.577 165.446 184.055 165.045L186.171 163.315C186.364 163.681 186.618 164.014 186.934 164.314C187.256 164.608 187.589 164.862 187.933 165.077C188.276 165.292 188.609 165.457 188.932 165.571C189.254 165.686 189.515 165.743 189.716 165.743C189.881 165.743 190.067 165.74 190.274 165.732C190.482 165.718 190.693 165.697 190.908 165.668C191.123 165.632 191.334 165.582 191.542 165.518C191.75 165.453 191.932 165.367 192.09 165.26C192.255 165.145 192.383 165.006 192.477 164.841C192.577 164.669 192.627 164.465 192.627 164.229C192.627 163.985 192.562 163.774 192.434 163.595C192.312 163.409 192.151 163.247 191.95 163.111C191.75 162.975 191.521 162.861 191.263 162.768C191.005 162.674 190.743 162.592 190.479 162.521C190.221 162.449 189.97 162.388 189.727 162.338C189.483 162.281 189.272 162.227 189.093 162.177C188.763 162.084 188.416 161.991 188.051 161.897C187.686 161.797 187.324 161.686 186.966 161.564C186.608 161.436 186.264 161.285 185.935 161.113C185.612 160.941 185.326 160.737 185.075 160.501C184.832 160.257 184.635 159.975 184.484 159.652C184.341 159.323 184.27 158.94 184.27 158.503C184.27 157.701 184.427 157.031 184.742 156.494C185.064 155.95 185.487 155.517 186.01 155.194C186.533 154.865 187.127 154.632 187.793 154.496C188.459 154.36 189.136 154.292 189.823 154.292C190.296 154.292 190.794 154.342 191.316 154.442C191.839 154.535 192.348 154.679 192.842 154.872C193.336 155.058 193.798 155.287 194.228 155.56C194.657 155.832 195.015 156.143 195.302 156.494L193.186 158.234C193.028 157.805 192.82 157.436 192.562 157.128C192.312 156.82 192.036 156.569 191.735 156.376C191.442 156.175 191.137 156.029 190.822 155.936C190.514 155.842 190.228 155.796 189.963 155.796C189.705 155.796 189.415 155.807 189.093 155.828C188.771 155.85 188.466 155.91 188.18 156.011C187.9 156.111 187.66 156.265 187.46 156.473C187.267 156.673 187.17 156.952 187.17 157.311C187.17 157.568 187.227 157.79 187.342 157.977C187.464 158.156 187.621 158.313 187.814 158.449C188.008 158.578 188.226 158.689 188.47 158.782C188.72 158.868 188.975 158.947 189.232 159.019C189.49 159.083 189.741 159.14 189.984 159.19C190.228 159.241 190.446 159.294 190.64 159.352C190.969 159.445 191.316 159.541 191.682 159.642C192.054 159.735 192.419 159.846 192.777 159.975C193.135 160.096 193.479 160.243 193.809 160.415C194.145 160.58 194.439 160.784 194.689 161.027C194.94 161.271 195.141 161.557 195.291 161.887C195.441 162.209 195.517 162.592 195.517 163.036Z" fill="#EE2F42"/>
</svg>
